<mxfile host="app.diagrams.net" modified="2023-11-30T10:01:57.911Z" agent="Mozilla/5.0 (Macintosh; Intel Mac OS X 10_15_7) AppleWebKit/537.36 (KHTML, like Gecko) Chrome/119.0.0.0 Safari/537.36" etag="xpbZhLkzyWRVfbL2zRok" version="22.1.5" type="device">
  <diagram name="Seite-1" id="n7qyjpztk6ZUSvW_JVuO">
    <mxGraphModel dx="903" dy="855" grid="1" gridSize="10" guides="1" tooltips="1" connect="1" arrows="1" fold="1" page="1" pageScale="1" pageWidth="827" pageHeight="1169" math="0" shadow="0">
      <root>
        <mxCell id="0" />
        <mxCell id="1" parent="0" />
        <mxCell id="srSjVzHeeGxkon8FVMmP-34" style="edgeStyle=orthogonalEdgeStyle;rounded=0;orthogonalLoop=1;jettySize=auto;html=1;exitX=1;exitY=0.5;exitDx=0;exitDy=0;entryX=0;entryY=0.5;entryDx=0;entryDy=0;" edge="1" parent="1" source="srSjVzHeeGxkon8FVMmP-1" target="srSjVzHeeGxkon8FVMmP-30">
          <mxGeometry relative="1" as="geometry" />
        </mxCell>
        <mxCell id="srSjVzHeeGxkon8FVMmP-1" value="Satzendzeichen" style="rounded=0;whiteSpace=wrap;html=1;" vertex="1" parent="1">
          <mxGeometry x="414" y="650" width="120" height="60" as="geometry" />
        </mxCell>
        <mxCell id="srSjVzHeeGxkon8FVMmP-18" style="edgeStyle=orthogonalEdgeStyle;rounded=0;orthogonalLoop=1;jettySize=auto;html=1;exitX=1;exitY=0.25;exitDx=0;exitDy=0;entryX=0;entryY=0.75;entryDx=0;entryDy=0;" edge="1" parent="1" source="srSjVzHeeGxkon8FVMmP-2" target="srSjVzHeeGxkon8FVMmP-13">
          <mxGeometry relative="1" as="geometry">
            <Array as="points">
              <mxPoint x="660" y="485" />
              <mxPoint x="660" y="445" />
            </Array>
          </mxGeometry>
        </mxCell>
        <mxCell id="srSjVzHeeGxkon8FVMmP-86" value="0...1" style="edgeLabel;html=1;align=center;verticalAlign=middle;resizable=0;points=[];" vertex="1" connectable="0" parent="srSjVzHeeGxkon8FVMmP-18">
          <mxGeometry x="0.2813" y="-2" relative="1" as="geometry">
            <mxPoint as="offset" />
          </mxGeometry>
        </mxCell>
        <mxCell id="srSjVzHeeGxkon8FVMmP-19" style="edgeStyle=orthogonalEdgeStyle;rounded=0;orthogonalLoop=1;jettySize=auto;html=1;exitX=1;exitY=0.75;exitDx=0;exitDy=0;entryX=0.75;entryY=1;entryDx=0;entryDy=0;" edge="1" parent="1" source="srSjVzHeeGxkon8FVMmP-2" target="srSjVzHeeGxkon8FVMmP-80">
          <mxGeometry relative="1" as="geometry">
            <mxPoint x="690" y="525" as="targetPoint" />
            <Array as="points">
              <mxPoint x="810" y="515" />
              <mxPoint x="810" y="280" />
              <mxPoint x="590" y="280" />
            </Array>
          </mxGeometry>
        </mxCell>
        <mxCell id="srSjVzHeeGxkon8FVMmP-85" value="0...1" style="edgeLabel;html=1;align=center;verticalAlign=middle;resizable=0;points=[];" vertex="1" connectable="0" parent="srSjVzHeeGxkon8FVMmP-19">
          <mxGeometry x="0.9141" y="-2" relative="1" as="geometry">
            <mxPoint as="offset" />
          </mxGeometry>
        </mxCell>
        <mxCell id="srSjVzHeeGxkon8FVMmP-2" value="FuÃŸzeile" style="rounded=0;whiteSpace=wrap;html=1;" vertex="1" parent="1">
          <mxGeometry x="520" y="470" width="120" height="60" as="geometry" />
        </mxCell>
        <mxCell id="srSjVzHeeGxkon8FVMmP-31" value="0...n" style="edgeStyle=orthogonalEdgeStyle;rounded=0;orthogonalLoop=1;jettySize=auto;html=1;exitX=0.25;exitY=1;exitDx=0;exitDy=0;entryX=0.5;entryY=0;entryDx=0;entryDy=0;" edge="1" parent="1" source="srSjVzHeeGxkon8FVMmP-3" target="srSjVzHeeGxkon8FVMmP-28">
          <mxGeometry relative="1" as="geometry" />
        </mxCell>
        <mxCell id="srSjVzHeeGxkon8FVMmP-32" style="edgeStyle=orthogonalEdgeStyle;rounded=0;orthogonalLoop=1;jettySize=auto;html=1;exitX=0.5;exitY=1;exitDx=0;exitDy=0;" edge="1" parent="1" source="srSjVzHeeGxkon8FVMmP-3" target="srSjVzHeeGxkon8FVMmP-29">
          <mxGeometry relative="1" as="geometry" />
        </mxCell>
        <mxCell id="srSjVzHeeGxkon8FVMmP-36" value="0...n" style="edgeLabel;html=1;align=center;verticalAlign=middle;resizable=0;points=[];" vertex="1" connectable="0" parent="srSjVzHeeGxkon8FVMmP-32">
          <mxGeometry x="0.6648" y="-1" relative="1" as="geometry">
            <mxPoint y="-1" as="offset" />
          </mxGeometry>
        </mxCell>
        <mxCell id="srSjVzHeeGxkon8FVMmP-33" style="edgeStyle=orthogonalEdgeStyle;rounded=0;orthogonalLoop=1;jettySize=auto;html=1;exitX=0.75;exitY=1;exitDx=0;exitDy=0;" edge="1" parent="1" source="srSjVzHeeGxkon8FVMmP-3" target="srSjVzHeeGxkon8FVMmP-1">
          <mxGeometry relative="1" as="geometry">
            <Array as="points">
              <mxPoint x="270" y="580" />
              <mxPoint x="474" y="580" />
            </Array>
          </mxGeometry>
        </mxCell>
        <mxCell id="srSjVzHeeGxkon8FVMmP-37" value="0...n" style="edgeLabel;html=1;align=center;verticalAlign=middle;resizable=0;points=[];" vertex="1" connectable="0" parent="srSjVzHeeGxkon8FVMmP-33">
          <mxGeometry x="0.7955" y="-1" relative="1" as="geometry">
            <mxPoint as="offset" />
          </mxGeometry>
        </mxCell>
        <mxCell id="srSjVzHeeGxkon8FVMmP-3" value="Absatz" style="rounded=0;whiteSpace=wrap;html=1;" vertex="1" parent="1">
          <mxGeometry x="180" y="470" width="120" height="60" as="geometry" />
        </mxCell>
        <mxCell id="srSjVzHeeGxkon8FVMmP-16" style="edgeStyle=orthogonalEdgeStyle;rounded=0;orthogonalLoop=1;jettySize=auto;html=1;exitX=1;exitY=0.5;exitDx=0;exitDy=0;entryX=0;entryY=0.5;entryDx=0;entryDy=0;" edge="1" parent="1" source="srSjVzHeeGxkon8FVMmP-4" target="srSjVzHeeGxkon8FVMmP-13">
          <mxGeometry relative="1" as="geometry" />
        </mxCell>
        <mxCell id="srSjVzHeeGxkon8FVMmP-20" value="0...1" style="edgeLabel;html=1;align=center;verticalAlign=middle;resizable=0;points=[];" vertex="1" connectable="0" parent="srSjVzHeeGxkon8FVMmP-16">
          <mxGeometry x="-0.195" y="3" relative="1" as="geometry">
            <mxPoint as="offset" />
          </mxGeometry>
        </mxCell>
        <mxCell id="srSjVzHeeGxkon8FVMmP-83" style="edgeStyle=orthogonalEdgeStyle;rounded=0;orthogonalLoop=1;jettySize=auto;html=1;exitX=0.5;exitY=0;exitDx=0;exitDy=0;entryX=0.5;entryY=1;entryDx=0;entryDy=0;" edge="1" parent="1" source="srSjVzHeeGxkon8FVMmP-4" target="srSjVzHeeGxkon8FVMmP-80">
          <mxGeometry relative="1" as="geometry" />
        </mxCell>
        <mxCell id="srSjVzHeeGxkon8FVMmP-84" value="0...1" style="edgeLabel;html=1;align=center;verticalAlign=middle;resizable=0;points=[];" vertex="1" connectable="0" parent="srSjVzHeeGxkon8FVMmP-83">
          <mxGeometry x="0.7803" y="-4" relative="1" as="geometry">
            <mxPoint as="offset" />
          </mxGeometry>
        </mxCell>
        <mxCell id="srSjVzHeeGxkon8FVMmP-4" value="Kopfzeile" style="rounded=0;whiteSpace=wrap;html=1;" vertex="1" parent="1">
          <mxGeometry x="520" y="400" width="120" height="60" as="geometry" />
        </mxCell>
        <mxCell id="srSjVzHeeGxkon8FVMmP-46" style="edgeStyle=orthogonalEdgeStyle;rounded=0;orthogonalLoop=1;jettySize=auto;html=1;exitX=0.25;exitY=1;exitDx=0;exitDy=0;" edge="1" parent="1" source="srSjVzHeeGxkon8FVMmP-5" target="srSjVzHeeGxkon8FVMmP-42">
          <mxGeometry relative="1" as="geometry">
            <Array as="points">
              <mxPoint x="70" y="530" />
            </Array>
          </mxGeometry>
        </mxCell>
        <mxCell id="srSjVzHeeGxkon8FVMmP-48" value="1...n" style="edgeLabel;html=1;align=center;verticalAlign=middle;resizable=0;points=[];" vertex="1" connectable="0" parent="srSjVzHeeGxkon8FVMmP-46">
          <mxGeometry x="0.8406" y="-5" relative="1" as="geometry">
            <mxPoint y="1" as="offset" />
          </mxGeometry>
        </mxCell>
        <mxCell id="srSjVzHeeGxkon8FVMmP-47" style="edgeStyle=orthogonalEdgeStyle;rounded=0;orthogonalLoop=1;jettySize=auto;html=1;exitX=0.5;exitY=1;exitDx=0;exitDy=0;entryX=0.25;entryY=0;entryDx=0;entryDy=0;" edge="1" parent="1" source="srSjVzHeeGxkon8FVMmP-5" target="srSjVzHeeGxkon8FVMmP-43">
          <mxGeometry relative="1" as="geometry">
            <Array as="points">
              <mxPoint x="110" y="890" />
              <mxPoint x="180" y="890" />
            </Array>
          </mxGeometry>
        </mxCell>
        <mxCell id="srSjVzHeeGxkon8FVMmP-49" value="1...n" style="edgeLabel;html=1;align=center;verticalAlign=middle;resizable=0;points=[];" vertex="1" connectable="0" parent="srSjVzHeeGxkon8FVMmP-47">
          <mxGeometry x="0.8049" y="3" relative="1" as="geometry">
            <mxPoint as="offset" />
          </mxGeometry>
        </mxCell>
        <mxCell id="srSjVzHeeGxkon8FVMmP-5" value="Tabelle" style="rounded=0;whiteSpace=wrap;html=1;" vertex="1" parent="1">
          <mxGeometry x="50" y="470" width="120" height="60" as="geometry" />
        </mxCell>
        <mxCell id="srSjVzHeeGxkon8FVMmP-8" style="edgeStyle=orthogonalEdgeStyle;rounded=0;orthogonalLoop=1;jettySize=auto;html=1;exitX=0.5;exitY=1;exitDx=0;exitDy=0;entryX=0.5;entryY=0;entryDx=0;entryDy=0;" edge="1" parent="1" source="srSjVzHeeGxkon8FVMmP-6" target="srSjVzHeeGxkon8FVMmP-7">
          <mxGeometry relative="1" as="geometry" />
        </mxCell>
        <mxCell id="srSjVzHeeGxkon8FVMmP-9" value="1:n" style="edgeLabel;html=1;align=center;verticalAlign=middle;resizable=0;points=[];" vertex="1" connectable="0" parent="srSjVzHeeGxkon8FVMmP-8">
          <mxGeometry x="-0.0139" y="-3" relative="1" as="geometry">
            <mxPoint y="1" as="offset" />
          </mxGeometry>
        </mxCell>
        <mxCell id="srSjVzHeeGxkon8FVMmP-35" style="edgeStyle=orthogonalEdgeStyle;rounded=0;orthogonalLoop=1;jettySize=auto;html=1;exitX=1;exitY=0.5;exitDx=0;exitDy=0;entryX=1;entryY=0.5;entryDx=0;entryDy=0;" edge="1" parent="1" source="srSjVzHeeGxkon8FVMmP-6" target="srSjVzHeeGxkon8FVMmP-30">
          <mxGeometry relative="1" as="geometry">
            <Array as="points">
              <mxPoint x="800" y="210" />
              <mxPoint x="800" y="680" />
            </Array>
          </mxGeometry>
        </mxCell>
        <mxCell id="srSjVzHeeGxkon8FVMmP-73" style="edgeStyle=orthogonalEdgeStyle;rounded=0;orthogonalLoop=1;jettySize=auto;html=1;exitX=0.5;exitY=0;exitDx=0;exitDy=0;entryX=0.5;entryY=1;entryDx=0;entryDy=0;" edge="1" parent="1" source="srSjVzHeeGxkon8FVMmP-6" target="srSjVzHeeGxkon8FVMmP-74">
          <mxGeometry relative="1" as="geometry">
            <mxPoint x="420" y="120" as="targetPoint" />
          </mxGeometry>
        </mxCell>
        <mxCell id="srSjVzHeeGxkon8FVMmP-6" value="Dokument" style="rounded=0;whiteSpace=wrap;html=1;" vertex="1" parent="1">
          <mxGeometry x="354" y="180" width="120" height="60" as="geometry" />
        </mxCell>
        <mxCell id="srSjVzHeeGxkon8FVMmP-10" style="edgeStyle=orthogonalEdgeStyle;rounded=0;orthogonalLoop=1;jettySize=auto;html=1;exitX=1;exitY=0.5;exitDx=0;exitDy=0;entryX=0;entryY=0.5;entryDx=0;entryDy=0;" edge="1" parent="1" source="srSjVzHeeGxkon8FVMmP-7" target="srSjVzHeeGxkon8FVMmP-4">
          <mxGeometry relative="1" as="geometry" />
        </mxCell>
        <mxCell id="srSjVzHeeGxkon8FVMmP-11" style="edgeStyle=orthogonalEdgeStyle;rounded=0;orthogonalLoop=1;jettySize=auto;html=1;exitX=0.75;exitY=1;exitDx=0;exitDy=0;entryX=0;entryY=0.5;entryDx=0;entryDy=0;" edge="1" parent="1" source="srSjVzHeeGxkon8FVMmP-7" target="srSjVzHeeGxkon8FVMmP-2">
          <mxGeometry relative="1" as="geometry" />
        </mxCell>
        <mxCell id="srSjVzHeeGxkon8FVMmP-24" style="edgeStyle=orthogonalEdgeStyle;rounded=0;orthogonalLoop=1;jettySize=auto;html=1;exitX=0.25;exitY=1;exitDx=0;exitDy=0;entryX=0.75;entryY=0;entryDx=0;entryDy=0;" edge="1" parent="1" source="srSjVzHeeGxkon8FVMmP-7" target="srSjVzHeeGxkon8FVMmP-3">
          <mxGeometry relative="1" as="geometry" />
        </mxCell>
        <mxCell id="srSjVzHeeGxkon8FVMmP-27" value="0...n" style="edgeLabel;html=1;align=center;verticalAlign=middle;resizable=0;points=[];" vertex="1" connectable="0" parent="srSjVzHeeGxkon8FVMmP-24">
          <mxGeometry x="0.6456" y="-2" relative="1" as="geometry">
            <mxPoint as="offset" />
          </mxGeometry>
        </mxCell>
        <mxCell id="srSjVzHeeGxkon8FVMmP-25" style="edgeStyle=orthogonalEdgeStyle;rounded=0;orthogonalLoop=1;jettySize=auto;html=1;exitX=0;exitY=0.5;exitDx=0;exitDy=0;entryX=0.75;entryY=0;entryDx=0;entryDy=0;" edge="1" parent="1" source="srSjVzHeeGxkon8FVMmP-7" target="srSjVzHeeGxkon8FVMmP-5">
          <mxGeometry relative="1" as="geometry" />
        </mxCell>
        <mxCell id="srSjVzHeeGxkon8FVMmP-26" value="0...n" style="edgeLabel;html=1;align=center;verticalAlign=middle;resizable=0;points=[];" vertex="1" connectable="0" parent="srSjVzHeeGxkon8FVMmP-25">
          <mxGeometry x="0.8341" y="-2" relative="1" as="geometry">
            <mxPoint as="offset" />
          </mxGeometry>
        </mxCell>
        <mxCell id="srSjVzHeeGxkon8FVMmP-7" value="Abschnitt" style="rounded=0;whiteSpace=wrap;html=1;" vertex="1" parent="1">
          <mxGeometry x="354" y="330" width="120" height="60" as="geometry" />
        </mxCell>
        <mxCell id="srSjVzHeeGxkon8FVMmP-13" value="Seitenzahlen" style="whiteSpace=wrap;html=1;" vertex="1" parent="1">
          <mxGeometry x="680" y="400" width="120" height="60" as="geometry" />
        </mxCell>
        <mxCell id="srSjVzHeeGxkon8FVMmP-40" style="edgeStyle=orthogonalEdgeStyle;rounded=0;orthogonalLoop=1;jettySize=auto;html=1;exitX=0.5;exitY=1;exitDx=0;exitDy=0;entryX=0.5;entryY=0;entryDx=0;entryDy=0;" edge="1" parent="1" source="srSjVzHeeGxkon8FVMmP-28" target="srSjVzHeeGxkon8FVMmP-39">
          <mxGeometry relative="1" as="geometry" />
        </mxCell>
        <mxCell id="srSjVzHeeGxkon8FVMmP-41" value="1...n" style="edgeLabel;html=1;align=center;verticalAlign=middle;resizable=0;points=[];" vertex="1" connectable="0" parent="srSjVzHeeGxkon8FVMmP-40">
          <mxGeometry x="0.1607" relative="1" as="geometry">
            <mxPoint y="1" as="offset" />
          </mxGeometry>
        </mxCell>
        <mxCell id="srSjVzHeeGxkon8FVMmP-28" value="Texte" style="whiteSpace=wrap;html=1;" vertex="1" parent="1">
          <mxGeometry x="150" y="650" width="120" height="60" as="geometry" />
        </mxCell>
        <mxCell id="srSjVzHeeGxkon8FVMmP-29" value="Bitmap Grafiken&lt;br&gt;" style="whiteSpace=wrap;html=1;" vertex="1" parent="1">
          <mxGeometry x="280" y="650" width="120" height="60" as="geometry" />
        </mxCell>
        <mxCell id="srSjVzHeeGxkon8FVMmP-30" value="Formatvorlage" style="whiteSpace=wrap;html=1;" vertex="1" parent="1">
          <mxGeometry x="590" y="650" width="120" height="60" as="geometry" />
        </mxCell>
        <mxCell id="srSjVzHeeGxkon8FVMmP-39" value="Zeichen" style="whiteSpace=wrap;html=1;" vertex="1" parent="1">
          <mxGeometry x="150" y="780" width="120" height="60" as="geometry" />
        </mxCell>
        <mxCell id="srSjVzHeeGxkon8FVMmP-45" style="edgeStyle=orthogonalEdgeStyle;rounded=0;orthogonalLoop=1;jettySize=auto;html=1;exitX=0.75;exitY=1;exitDx=0;exitDy=0;entryX=0.75;entryY=1;entryDx=0;entryDy=0;" edge="1" parent="1" source="srSjVzHeeGxkon8FVMmP-42" target="srSjVzHeeGxkon8FVMmP-1">
          <mxGeometry relative="1" as="geometry" />
        </mxCell>
        <mxCell id="srSjVzHeeGxkon8FVMmP-54" style="edgeStyle=orthogonalEdgeStyle;rounded=0;orthogonalLoop=1;jettySize=auto;html=1;exitX=0.5;exitY=1;exitDx=0;exitDy=0;entryX=0;entryY=0.75;entryDx=0;entryDy=0;" edge="1" parent="1" source="srSjVzHeeGxkon8FVMmP-42" target="srSjVzHeeGxkon8FVMmP-52">
          <mxGeometry relative="1" as="geometry" />
        </mxCell>
        <mxCell id="srSjVzHeeGxkon8FVMmP-55" style="edgeStyle=orthogonalEdgeStyle;rounded=0;orthogonalLoop=1;jettySize=auto;html=1;exitX=0.25;exitY=1;exitDx=0;exitDy=0;entryX=0.25;entryY=0;entryDx=0;entryDy=0;" edge="1" parent="1" source="srSjVzHeeGxkon8FVMmP-42" target="srSjVzHeeGxkon8FVMmP-53">
          <mxGeometry relative="1" as="geometry">
            <Array as="points">
              <mxPoint x="40" y="1020" />
              <mxPoint x="270" y="1020" />
            </Array>
          </mxGeometry>
        </mxCell>
        <mxCell id="srSjVzHeeGxkon8FVMmP-58" value="0...n" style="edgeLabel;html=1;align=center;verticalAlign=middle;resizable=0;points=[];" vertex="1" connectable="0" parent="srSjVzHeeGxkon8FVMmP-55">
          <mxGeometry x="0.4925" y="-2" relative="1" as="geometry">
            <mxPoint as="offset" />
          </mxGeometry>
        </mxCell>
        <mxCell id="srSjVzHeeGxkon8FVMmP-42" value="Spalten" style="whiteSpace=wrap;html=1;" vertex="1" parent="1">
          <mxGeometry x="10" y="920" width="120" height="60" as="geometry" />
        </mxCell>
        <mxCell id="srSjVzHeeGxkon8FVMmP-44" style="edgeStyle=orthogonalEdgeStyle;rounded=0;orthogonalLoop=1;jettySize=auto;html=1;exitX=1;exitY=0.5;exitDx=0;exitDy=0;entryX=0.5;entryY=1;entryDx=0;entryDy=0;" edge="1" parent="1" source="srSjVzHeeGxkon8FVMmP-43" target="srSjVzHeeGxkon8FVMmP-1">
          <mxGeometry relative="1" as="geometry" />
        </mxCell>
        <mxCell id="srSjVzHeeGxkon8FVMmP-50" style="edgeStyle=orthogonalEdgeStyle;rounded=0;orthogonalLoop=1;jettySize=auto;html=1;exitX=0.5;exitY=0;exitDx=0;exitDy=0;entryX=0;entryY=1;entryDx=0;entryDy=0;" edge="1" parent="1" source="srSjVzHeeGxkon8FVMmP-43" target="srSjVzHeeGxkon8FVMmP-3">
          <mxGeometry relative="1" as="geometry">
            <Array as="points">
              <mxPoint x="210" y="860" />
              <mxPoint x="130" y="860" />
              <mxPoint x="130" y="570" />
              <mxPoint x="180" y="570" />
            </Array>
          </mxGeometry>
        </mxCell>
        <mxCell id="srSjVzHeeGxkon8FVMmP-56" style="edgeStyle=orthogonalEdgeStyle;rounded=0;orthogonalLoop=1;jettySize=auto;html=1;exitX=0.25;exitY=1;exitDx=0;exitDy=0;entryX=0.75;entryY=0;entryDx=0;entryDy=0;" edge="1" parent="1" source="srSjVzHeeGxkon8FVMmP-43" target="srSjVzHeeGxkon8FVMmP-52">
          <mxGeometry relative="1" as="geometry" />
        </mxCell>
        <mxCell id="srSjVzHeeGxkon8FVMmP-57" style="edgeStyle=orthogonalEdgeStyle;rounded=0;orthogonalLoop=1;jettySize=auto;html=1;exitX=0.75;exitY=1;exitDx=0;exitDy=0;entryX=0.5;entryY=0;entryDx=0;entryDy=0;" edge="1" parent="1" source="srSjVzHeeGxkon8FVMmP-43" target="srSjVzHeeGxkon8FVMmP-53">
          <mxGeometry relative="1" as="geometry">
            <Array as="points">
              <mxPoint x="240" y="1010" />
              <mxPoint x="300" y="1010" />
            </Array>
          </mxGeometry>
        </mxCell>
        <mxCell id="srSjVzHeeGxkon8FVMmP-59" value="0...n" style="edgeLabel;html=1;align=center;verticalAlign=middle;resizable=0;points=[];" vertex="1" connectable="0" parent="srSjVzHeeGxkon8FVMmP-57">
          <mxGeometry x="0.5481" y="3" relative="1" as="geometry">
            <mxPoint y="-1" as="offset" />
          </mxGeometry>
        </mxCell>
        <mxCell id="srSjVzHeeGxkon8FVMmP-43" value="Reihe" style="whiteSpace=wrap;html=1;" vertex="1" parent="1">
          <mxGeometry x="150" y="920" width="120" height="60" as="geometry" />
        </mxCell>
        <mxCell id="srSjVzHeeGxkon8FVMmP-51" style="edgeStyle=orthogonalEdgeStyle;rounded=0;orthogonalLoop=1;jettySize=auto;html=1;exitX=0.75;exitY=0;exitDx=0;exitDy=0;entryX=0.126;entryY=1.031;entryDx=0;entryDy=0;entryPerimeter=0;" edge="1" parent="1" source="srSjVzHeeGxkon8FVMmP-42" target="srSjVzHeeGxkon8FVMmP-3">
          <mxGeometry relative="1" as="geometry">
            <Array as="points">
              <mxPoint x="90" y="920" />
              <mxPoint x="90" y="590" />
              <mxPoint x="195" y="590" />
            </Array>
          </mxGeometry>
        </mxCell>
        <mxCell id="srSjVzHeeGxkon8FVMmP-52" value="Hintergrund" style="whiteSpace=wrap;html=1;" vertex="1" parent="1">
          <mxGeometry x="100" y="1050" width="120" height="60" as="geometry" />
        </mxCell>
        <mxCell id="srSjVzHeeGxkon8FVMmP-53" value="Berandungslinien" style="whiteSpace=wrap;html=1;" vertex="1" parent="1">
          <mxGeometry x="240" y="1050" width="120" height="60" as="geometry" />
        </mxCell>
        <mxCell id="srSjVzHeeGxkon8FVMmP-74" value="&lt;p style=&quot;margin:0px;margin-top:4px;text-align:center;&quot;&gt;&lt;b&gt;administrative Informationen&lt;/b&gt;&lt;/p&gt;&lt;hr size=&quot;1&quot;&gt;&lt;p style=&quot;margin:0px;margin-left:4px;&quot;&gt;+ Titel: String&lt;/p&gt;&lt;hr size=&quot;1&quot;&gt;&lt;p style=&quot;margin:0px;margin-left:4px;&quot;&gt;&lt;br&gt;&lt;/p&gt;" style="verticalAlign=top;align=left;overflow=fill;fontSize=12;fontFamily=Helvetica;html=1;whiteSpace=wrap;" vertex="1" parent="1">
          <mxGeometry x="140" y="20" width="160" height="180" as="geometry" />
        </mxCell>
        <mxCell id="srSjVzHeeGxkon8FVMmP-76" value="+ Autor: String" style="text;strokeColor=none;fillColor=none;align=left;verticalAlign=top;spacingLeft=4;spacingRight=4;overflow=hidden;rotatable=0;points=[[0,0.5],[1,0.5]];portConstraint=eastwest;whiteSpace=wrap;html=1;" vertex="1" parent="1">
          <mxGeometry x="140" y="90" width="160" height="26" as="geometry" />
        </mxCell>
        <mxCell id="srSjVzHeeGxkon8FVMmP-77" value="+ Dateiname: String" style="text;strokeColor=none;fillColor=none;align=left;verticalAlign=top;spacingLeft=4;spacingRight=4;overflow=hidden;rotatable=0;points=[[0,0.5],[1,0.5]];portConstraint=eastwest;whiteSpace=wrap;html=1;" vertex="1" parent="1">
          <mxGeometry x="140" y="116" width="160" height="26" as="geometry" />
        </mxCell>
        <mxCell id="srSjVzHeeGxkon8FVMmP-78" value="+ Erstellung: Datum" style="text;strokeColor=none;fillColor=none;align=left;verticalAlign=top;spacingLeft=4;spacingRight=4;overflow=hidden;rotatable=0;points=[[0,0.5],[1,0.5]];portConstraint=eastwest;whiteSpace=wrap;html=1;" vertex="1" parent="1">
          <mxGeometry x="140" y="142" width="160" height="26" as="geometry" />
        </mxCell>
        <mxCell id="srSjVzHeeGxkon8FVMmP-79" value="+ Ã„nderung: Datum" style="text;strokeColor=none;fillColor=none;align=left;verticalAlign=top;spacingLeft=4;spacingRight=4;overflow=hidden;rotatable=0;points=[[0,0.5],[1,0.5]];portConstraint=eastwest;whiteSpace=wrap;html=1;" vertex="1" parent="1">
          <mxGeometry x="140" y="168" width="160" height="26" as="geometry" />
        </mxCell>
        <mxCell id="srSjVzHeeGxkon8FVMmP-81" style="edgeStyle=orthogonalEdgeStyle;rounded=0;orthogonalLoop=1;jettySize=auto;html=1;exitX=0;exitY=0.5;exitDx=0;exitDy=0;entryX=1;entryY=0.5;entryDx=0;entryDy=0;" edge="1" parent="1" source="srSjVzHeeGxkon8FVMmP-80" target="srSjVzHeeGxkon8FVMmP-78">
          <mxGeometry relative="1" as="geometry">
            <Array as="points">
              <mxPoint x="380" y="60" />
              <mxPoint x="380" y="90" />
              <mxPoint x="330" y="90" />
              <mxPoint x="330" y="130" />
              <mxPoint x="310" y="130" />
              <mxPoint x="310" y="155" />
            </Array>
          </mxGeometry>
        </mxCell>
        <mxCell id="srSjVzHeeGxkon8FVMmP-82" style="edgeStyle=orthogonalEdgeStyle;rounded=0;orthogonalLoop=1;jettySize=auto;html=1;exitX=0;exitY=0.75;exitDx=0;exitDy=0;entryX=1;entryY=0.5;entryDx=0;entryDy=0;" edge="1" parent="1" source="srSjVzHeeGxkon8FVMmP-80" target="srSjVzHeeGxkon8FVMmP-79">
          <mxGeometry relative="1" as="geometry">
            <Array as="points">
              <mxPoint x="400" y="75" />
              <mxPoint x="400" y="150" />
              <mxPoint x="320" y="150" />
              <mxPoint x="320" y="181" />
            </Array>
          </mxGeometry>
        </mxCell>
        <mxCell id="srSjVzHeeGxkon8FVMmP-80" value="Datum" style="whiteSpace=wrap;html=1;" vertex="1" parent="1">
          <mxGeometry x="500" y="30" width="120" height="60" as="geometry" />
        </mxCell>
      </root>
    </mxGraphModel>
  </diagram>
</mxfile>
